<svg data-name="_Glyphs / Quick Action / Book" xmlns="http://www.w3.org/2000/svg" width="25" height="23"><path d="M12.5 23a1.754 1.754 0 0 1-1.307-.528 4.744 4.744 0 0 0-3.407-2.449 4.644 4.644 0 0 0-.588-.036 10.473 10.473 0 0 0-4.674 1.446 1.662 1.662 0 0 1-.78.2 1.686 1.686 0 0 1-.859-.238 1.647 1.647 0 0 1-.817-1.412C-.067 4.027 0 3.925.251 3.548A7.956 7.956 0 0 1 6.92 0a7.977 7.977 0 0 1 5.58 2.238 8.056 8.056 0 0 1 12.25 1.31c.25.377.317.479.181 16.43a1.642 1.642 0 0 1-.818 1.412 1.658 1.658 0 0 1-1.639.042 10.466 10.466 0 0 0-4.674-1.445 4.638 4.638 0 0 0-.588.036 4.741 4.741 0 0 0-3.408 2.449A1.653 1.653 0 0 1 12.5 23Zm5.579-20.913a5.919 5.919 0 0 0-4.5 2.031c-.046.655-.138 3.466 0 15.371a6.191 6.191 0 0 1 3.371-1.535 6.863 6.863 0 0 1 .867-.054 11.545 11.545 0 0 1 5.033 1.383c.089-10.721.061-13.958.022-14.785a5.915 5.915 0 0 0-4.793-2.411ZM7.183 17.9a6.873 6.873 0 0 1 .867.054 6.178 6.178 0 0 1 3.369 1.535c.138-11.9.046-14.713 0-15.371a5.981 5.981 0 0 0-9.291.38c-.033.686-.074 3.521.021 14.785A11.547 11.547 0 0 1 7.183 17.9Z" fill="#fff"/></svg>