<svg xmlns="http://www.w3.org/2000/svg" width="20" height="18.879"><path d="M20 14.078V2.008a1.97 1.97 0 0 0-2.17-1.99h-.06a18.851 18.851 0 0 0-7.07 2.37l-.17.11a1.108 1.108 0 0 1-1.06 0l-.25-.15A18.757 18.757 0 0 0 2.16.008 1.967 1.967 0 0 0 0 2v12.08a2.055 2.055 0 0 0 1.74 1.98l.29.04a25.693 25.693 0 0 1 7.44 2.44l.04.02a1.08 1.08 0 0 0 .96 0 25.461 25.461 0 0 1 7.46-2.46l.33-.04A2.055 2.055 0 0 0 20 14.078Z" fill="#5c4135"/><path data-name="Vector" d="M10 2.828v15.3" fill="#5c4135" stroke="#d3ccc9" stroke-linecap="round" stroke-linejoin="round" stroke-width="1.5"/><path data-name="Vector" d="M5.75 5.828H3.5M6.5 8.828h-3" fill="none" stroke="#d3ccc9" stroke-linecap="round" stroke-linejoin="round" stroke-width="1.5"/></svg>