<svg xmlns="http://www.w3.org/2000/svg" width="24" height="24"><g fill="none" stroke="#5c4135" stroke-linecap="round" stroke-linejoin="round" stroke-width="1.5"><path d="M22 16.74V4.67a1.97 1.97 0 0 0-2.17-1.99h-.06a18.851 18.851 0 0 0-7.07 2.37l-.17.11a1.108 1.108 0 0 1-1.06 0l-.25-.15a18.757 18.757 0 0 0-7.06-2.34A1.967 1.967 0 0 0 2 4.662v12.08a2.055 2.055 0 0 0 1.74 1.98l.29.04a25.693 25.693 0 0 1 7.44 2.44l.04.02a1.08 1.08 0 0 0 .96 0 25.461 25.461 0 0 1 7.46-2.46l.33-.04A2.055 2.055 0 0 0 22 16.74Z"/><path data-name="Vector" d="M12 5.49v15M7.75 8.49H5.5M8.5 11.49h-3"/></g></svg>