<svg xmlns="http://www.w3.org/2000/svg" width="24" height="24"><g fill="#5c4135"><path data-name="Vector" d="M16.75 3.56V2a.75.75 0 0 0-1.5 0v1.5h-6.5V2a.75.75 0 0 0-1.5 0v1.56a4.248 4.248 0 0 0-4.211 4.25.5.5 0 0 0 .5.53h16.92a.5.5 0 0 0 .5-.53 4.248 4.248 0 0 0-4.209-4.25ZM20 9.84H4a1 1 0 0 0-1 1V17c0 3 1.5 5 5 5h8c3.5 0 5-2 5-5v-6.16a1 1 0 0 0-1-1ZM9.21 18.21a1.576 1.576 0 0 1-.15.12.757.757 0 0 1-.18.09.636.636 0 0 1-.18.06 1.355 1.355 0 0 1-.2.02 1 1 0 0 1-.38-.08 1.032 1.032 0 0 1-.33-.21 1.014 1.014 0 0 1 0-1.42 1.032 1.032 0 0 1 .33-.21.956.956 0 0 1 .58-.06.636.636 0 0 1 .18.06.757.757 0 0 1 .18.09l.15.12a1.014 1.014 0 0 1 0 1.42Zm0-3.5a1.014 1.014 0 0 1-1.42 0 1.014 1.014 0 0 1 0-1.42 1 1 0 0 1 1.09-.21.933.933 0 0 1 .33.21 1.014 1.014 0 0 1 0 1.42Zm3.5 3.5a1.004 1.004 0 0 1-1.42-1.42 1.004 1.004 0 0 1 1.42 1.42Zm0-3.5-.15.12a.757.757 0 0 1-.18.09.636.636 0 0 1-.18.06 1.355 1.355 0 0 1-.2.02.99.99 0 0 1-1-1 1.052 1.052 0 0 1 .29-.71.933.933 0 0 1 .33-.21 1 1 0 0 1 1.09.21 1.014 1.014 0 0 1 0 1.42Zm3.5 3.5a1.004 1.004 0 0 1-1.42-1.42 1.004 1.004 0 0 1 1.42 1.42Zm0-3.5-.15.12a.757.757 0 0 1-.18.09.636.636 0 0 1-.18.06 1.5 1.5 0 0 1-.2.02.99.99 0 0 1-1-1 1.052 1.052 0 0 1 .29-.71 1.032 1.032 0 0 1 .33-.21.956.956 0 0 1 .58-.06.636.636 0 0 1 .18.06.757.757 0 0 1 .18.09l.15.12a1.014 1.014 0 0 1 0 1.42Z"/></g></svg>