<svg xmlns="http://www.w3.org/2000/svg" width="24" height="24"><g data-name="Group 83" transform="translate(-370 -72)"><g fill="none" stroke="#584237" stroke-width="1.5" data-name="vuesax/linear/notification"><path d="M382.02 74.91a6 6 0 0 0-6 6v2.89a4.778 4.778 0 0 1-.57 2.06l-1.15 1.91a1.919 1.919 0 0 0 1.08 2.93 20.921 20.921 0 0 0 13.27 0 2 2 0 0 0 1.08-2.93l-1.15-1.91a4.91 4.91 0 0 1-.56-2.06v-2.89a6.018 6.018 0 0 0-6-6Z" stroke-linecap="round"/><path data-name="Vector" d="M383.87 75.2a6.054 6.054 0 0 0-.96-.2 6.754 6.754 0 0 0-2.74.2 1.988 1.988 0 0 1 3.7 0Z" stroke-linecap="round" stroke-linejoin="round"/><path data-name="Vector" d="M385.02 91.06a3.009 3.009 0 0 1-3 3 3.011 3.011 0 0 1-2.12-.88 3.011 3.011 0 0 1-.88-2.12"/></g><circle data-name="Ellipse 1" cx="3" cy="3" r="3" transform="translate(384 74)" fill="#5c4135"/></g></svg>