<svg xmlns="http://www.w3.org/2000/svg" width="18.37" height="21.064"><path data-name="Path 3684" d="M9.051.724a1.87 1.87 0 0 1 2.146-.078 1.466 1.466 0 0 1 .4.5c1.162 2.629 2.4 5.222 3.48 7.889a10.487 10.487 0 0 1 .733 3.678c.021.778.043 1.556.055 2.335 0 .116.056.139.143.16q.872.211 1.744.426a.461.461 0 0 1 .38.42.43.43 0 0 1-.288.468.617.617 0 0 1-.318.015c-.727-.171-1.451-.352-2.176-.533a.472.472 0 0 1-.405-.521c-.028-1.07-.049-2.141-.091-3.211a9.157 9.157 0 0 0-.813-3.313c-.837-1.918-1.686-3.83-2.532-5.744q-.36-.815-.728-1.625a.493.493 0 0 0-.665-.273.391.391 0 0 0-.264.508c.1.32.222.635.339.95q.48 1.294.967 2.585a.24.24 0 0 0 .13.133 1.439 1.439 0 0 1 1.033 1.074c.32 1.251.617 2.507.921 3.762a.467.467 0 1 1-.91.207c-.289-1.182-.574-2.365-.865-3.547a1.532 1.532 0 0 0-.137-.373.4.4 0 0 0-.478-.2.434.434 0 0 0-.308.441c.026.326.069.65.1.975.08.758.164 1.516.235 2.276a1.739 1.739 0 0 1-.173.924c-.137.285-.274.572-.423.851a3.681 3.681 0 0 0-.356 2.152 9.768 9.768 0 0 0 .537 2.262 3.459 3.459 0 0 0 1.284 1.617 9.421 9.421 0 0 0 2.991 1.413 15.066 15.066 0 0 0 2.893.571.493.493 0 0 1 .5.37.464.464 0 0 1-.535.567c-.656-.1-1.314-.187-1.963-.317a12.34 12.34 0 0 1-3.321-1.163 6.289 6.289 0 0 1-2.261-1.842 4.946 4.946 0 0 1-.666-1.53l-.055-.183a.926.926 0 0 0-.043.111 5.318 5.318 0 0 1-2.856 3.244 12.574 12.574 0 0 1-3.788 1.386c-.615.126-1.24.2-1.861.3a.465.465 0 0 1-.536-.38.457.457 0 0 1 .4-.542c.7-.117 1.4-.2 2.091-.355a10.5 10.5 0 0 0 3.578-1.428 6.513 6.513 0 0 0 .79-.628 3.056 3.056 0 0 0 .865-1.381 9.232 9.232 0 0 0 .5-2.481 3.4 3.4 0 0 0-.349-1.691c-.12-.233-.227-.474-.356-.7a2.437 2.437 0 0 1-.256-1.526l.315-2.776a.487.487 0 0 0-.1-.4.4.4 0 0 0-.65.027 1.329 1.329 0 0 0-.166.408c-.291 1.176-.575 2.354-.863 3.532a.467.467 0 1 1-.9-.217c.3-1.23.594-2.462.9-3.69a1.459 1.459 0 0 1 1.048-1.112.2.2 0 0 0 .116-.109q.645-1.715 1.28-3.434c.115-.311.035-.528-.22-.63a.5.5 0 0 0-.68.29c-.915 2.04-1.839 4.077-2.742 6.123A18.95 18.95 0 0 0 3.773 10.6a10.19 10.19 0 0 0-.281 2.221c-.032.9-.043 1.8-.062 2.706a.448.448 0 0 1-.366.473q-1.115.281-2.232.554a.467.467 0 1 1-.218-.908c.571-.143 1.142-.287 1.715-.418.143-.033.179-.092.182-.235.025-.991.048-1.983.1-2.973a9.576 9.576 0 0 1 .836-3.338c.717-1.652 1.445-3.3 2.172-4.946.371-.842.752-1.679 1.126-2.52a1.444 1.444 0 0 1 2.2-.574c.036.026.343.055.385.088m-.272 2.4c-.166.326-.613 1.649-.914 2.449-.032.086.015.114.068.153a1.226 1.226 0 0 1 .525.816 3.036 3.036 0 0 1-.008.737c-.088.857-.191 1.712-.285 2.568a1.426 1.426 0 0 0 .083.8c.169.347.343.691.516 1.036 0 0 .017 0 .029.005h.274l.479-.97a1.656 1.656 0 0 0 .128-.615 8.074 8.074 0 0 0-.084-.9c-.075-.684-.144-1.369-.232-2.051a1.418 1.418 0 0 1 .562-1.439c.069-.05.065-.093.038-.161-.162-.425-.319-.852-.478-1.278-.137-.369-.436-1.091-.428-1.149" fill="#5c4135" stroke="#5c4135" stroke-linecap="round" stroke-width=".45"/></svg>