<svg xmlns="http://www.w3.org/2000/svg" width="16" height="16"><g fill="none" stroke="#f5f5f5" stroke-linecap="round" stroke-linejoin="round" stroke-width=".75" data-name="vuesax/linear/book-saved" opacity=".5"><path d="M14.666 3.113v8.047a1.37 1.37 0 0 1-1.16 1.32l-.22.027a16.974 16.974 0 0 0-4.973 1.64.72.72 0 0 1-.64 0l-.027-.013a17.128 17.128 0 0 0-4.96-1.627l-.193-.027a1.37 1.37 0 0 1-1.16-1.32V3.107a1.312 1.312 0 0 1 1.44-1.327A12.5 12.5 0 0 1 7.48 3.34l.167.1a.739.739 0 0 0 .707 0l.113-.073A10.28 10.28 0 0 1 10 2.613v2.72l1.333-.886 1.333.887V1.853a5.174 5.174 0 0 1 .513-.067h.04a1.313 1.313 0 0 1 1.447 1.327Z"/><path data-name="Vector" d="M8 3.66v10M12.667 1.853v3.48l-1.334-.887L10 5.333v-2.72a13.474 13.474 0 0 1 2.667-.76Z"/></g></svg>